# xmcd
#
# Track frame offsets: 
#        187
#        21275
#        34652
#        48747
#        61315
#        69297
#        78430
#        102385
#        131125
#        141000
#        154495
#        168150
#        181127
#        192300
#        203462
#        219182
#        235042
#        249900
#        258212
#        273037
#        283030
#
# Disc length: 3983 seconds
#
# Revision: 3
# Processed by: cddbd v1.5.1PL2 Copyright (c) Steve Scherf et al.
# Submitted via: ExactAudioCopy v0.95b2
#
DISCID=200f8d15
DTITLE=Various Artist - Big Band Bash
DYEAR=1989
DGENRE=Big Band
TTITLE0=Louis Armstrong - Jeepers Creepers
TTITLE1=Charlie Barnet - Skyliner
TTITLE2=Count Basie - One O'Clock Jump
TTITLE3=Les Brown - I've Got My Love To Keep Me Warm
TTITLE4=Jimmy Dorsey - Shine On Harvest Moon
TTITLE5=Jimmy and Tommy Dorsey - So Rare
TTITLE6=Duke Ellington - Take The A Train
TTITLE7=Benny Goodman - Sing, Sing, Sing
TTITLE8=Ahmad Jamal - My Funny Valentine
TTITLE9=Gene Krupa - King Porter Stomp
TTITLE10=Jimmie Lunceford - Annie Laurie
TTITLE11=Woody Herman - Woodchopper's Ball
TTITLE12=Earl Hines - Deed I Do
TTITLE13=Harry James - Ciribiribin
TTITLE14=Quincy Jones - Watermelon Man
TTITLE15=Scott Joplin - The Entertainer
TTITLE16=Glenn Miller - In The Mood
TTITLE17=Hugo Montenegro - Release Me
TTITLE18=Artie Shaw - Frenesi
TTITLE19=Hugo Winterhalter - Love Theme (from Romeo and Juliet)
TTITLE20=John Kirby - Shoo Shoo Baby
EXTD=
EXTT0=
EXTT1=
EXTT2=
EXTT3=
EXTT4=
EXTT5=
EXTT6=
EXTT7=
EXTT8=
EXTT9=
EXTT10=
EXTT11=
EXTT12=
EXTT13=
EXTT14=
EXTT15=
EXTT16=
EXTT17=
EXTT18=
EXTT19=
EXTT20=
PLAYORDER=
